<svg width="61" height="61" viewBox="0 0 61 61" fill="none" xmlns="http://www.w3.org/2000/svg">
<path d="M57.34 31.1354C57.34 29.1529 57.1621 27.2466 56.8317 25.4166H30.5V36.2314H45.5467C44.8985 39.7262 42.9288 42.6873 39.9677 44.6698V51.6847H49.0033C54.29 46.8175 57.34 39.65 57.34 31.1354Z" fill="#4285F4"/>
<path d="M30.5 58.4584C38.0487 58.4584 44.3775 55.9548 49.0033 51.6848L39.9677 44.6698C37.4641 46.3473 34.2616 47.3386 30.5 47.3386C23.2181 47.3386 17.0545 42.4205 14.856 35.8121H5.51538V43.0559C10.1158 52.1932 19.5708 58.4584 30.5 58.4584Z" fill="#34A853"/>
<path d="M14.856 35.8121C14.2968 34.1346 13.9791 32.3428 13.9791 30.5C13.9791 28.6573 14.2968 26.8655 14.856 25.188V17.9442H5.51538C3.55829 21.8402 2.5399 26.1401 2.54163 30.5C2.54163 35.0115 3.62184 39.2815 5.51538 43.0559L14.856 35.8121Z" fill="#FBBC05"/>
<path d="M30.5 13.6614C34.6048 13.6614 38.2902 15.072 41.1877 17.8425L49.2066 9.8235C44.3648 5.31204 38.036 2.54163 30.5 2.54163C19.5708 2.54163 10.1158 8.80683 5.51538 17.9441L14.856 25.1879C17.0545 18.5795 23.2181 13.6614 30.5 13.6614Z" fill="#EA4335"/>
</svg>
